<mxfile host="app.diagrams.net" modified="2020-11-13T10:11:21.475Z" agent="5.0 (Windows NT 10.0; Win64; x64) AppleWebKit/537.36 (KHTML, like Gecko) Chrome/86.0.4240.183 Safari/537.36 OPR/72.0.3815.320" etag="-gRC1KlNRWIvNCpNFwU1" version="13.9.7" type="github">
  <diagram id="C5RBs43oDa-KdzZeNtuy" name="Page-1">
    <mxGraphModel dx="1382" dy="925" grid="1" gridSize="10" guides="1" tooltips="1" connect="1" arrows="1" fold="1" page="1" pageScale="1" pageWidth="827" pageHeight="1169" math="0" shadow="0">
      <root>
        <mxCell id="WIyWlLk6GJQsqaUBKTNV-0" />
        <mxCell id="WIyWlLk6GJQsqaUBKTNV-1" parent="WIyWlLk6GJQsqaUBKTNV-0" />
        <mxCell id="WIyWlLk6GJQsqaUBKTNV-2" value="" style="rounded=0;html=1;jettySize=auto;orthogonalLoop=1;fontSize=11;endArrow=block;endFill=0;endSize=8;strokeWidth=1;shadow=0;labelBackgroundColor=none;edgeStyle=orthogonalEdgeStyle;entryX=0.5;entryY=0;entryDx=0;entryDy=0;" parent="WIyWlLk6GJQsqaUBKTNV-1" source="_sylbeW_0SSfajVgVUL3-6" target="XMATNLXkK4PC5yNH6uel-3" edge="1">
          <mxGeometry relative="1" as="geometry">
            <mxPoint x="360" y="370" as="targetPoint" />
          </mxGeometry>
        </mxCell>
        <mxCell id="_sylbeW_0SSfajVgVUL3-11" value="true" style="edgeLabel;html=1;align=center;verticalAlign=middle;resizable=0;points=[];" parent="WIyWlLk6GJQsqaUBKTNV-2" vertex="1" connectable="0">
          <mxGeometry x="-0.3067" y="1" relative="1" as="geometry">
            <mxPoint x="-1" y="2.8000000000000007" as="offset" />
          </mxGeometry>
        </mxCell>
        <mxCell id="WIyWlLk6GJQsqaUBKTNV-3" value="Start" style="rounded=1;whiteSpace=wrap;html=1;fontSize=12;glass=0;strokeWidth=1;shadow=0;" parent="WIyWlLk6GJQsqaUBKTNV-1" vertex="1">
          <mxGeometry x="300" y="10" width="120" height="40" as="geometry" />
        </mxCell>
        <mxCell id="WIyWlLk6GJQsqaUBKTNV-10" value="div &amp;lt; Abbr.krit&lt;br&gt;und&lt;br&gt;not(engaged)" style="rhombus;whiteSpace=wrap;html=1;shadow=0;fontFamily=Helvetica;fontSize=12;align=center;strokeWidth=1;spacing=6;spacingTop=-4;" parent="WIyWlLk6GJQsqaUBKTNV-1" vertex="1">
          <mxGeometry x="290" y="840" width="140" height="80" as="geometry" />
        </mxCell>
        <mxCell id="XMATNLXkK4PC5yNH6uel-0" value="&lt;ul&gt;&lt;li&gt;Param. der Maschine&lt;/li&gt;&lt;li&gt;Erzeugung der Wkz-punkte&lt;/li&gt;&lt;li&gt;Param. der Simulation&lt;/li&gt;&lt;ul&gt;&lt;li&gt;[zmin zmax]&lt;/li&gt;&lt;li&gt;nSchritte&lt;/li&gt;&lt;/ul&gt;&lt;/ul&gt;" style="rounded=0;whiteSpace=wrap;html=1;align=left;" parent="WIyWlLk6GJQsqaUBKTNV-1" vertex="1">
          <mxGeometry x="230" y="80" width="260" height="80" as="geometry" />
        </mxCell>
        <mxCell id="XMATNLXkK4PC5yNH6uel-1" value="" style="rounded=0;html=1;jettySize=auto;orthogonalLoop=1;fontSize=11;endArrow=block;endFill=0;endSize=8;strokeWidth=1;shadow=0;labelBackgroundColor=none;edgeStyle=orthogonalEdgeStyle;" parent="WIyWlLk6GJQsqaUBKTNV-1" source="WIyWlLk6GJQsqaUBKTNV-3" target="XMATNLXkK4PC5yNH6uel-0" edge="1">
          <mxGeometry relative="1" as="geometry">
            <mxPoint x="290" y="60" as="sourcePoint" />
            <mxPoint x="290" y="220" as="targetPoint" />
          </mxGeometry>
        </mxCell>
        <mxCell id="XMATNLXkK4PC5yNH6uel-15" value="" style="edgeStyle=orthogonalEdgeStyle;rounded=0;orthogonalLoop=1;jettySize=auto;html=1;endArrow=blockThin;endFill=0;" parent="WIyWlLk6GJQsqaUBKTNV-1" source="XMATNLXkK4PC5yNH6uel-3" target="XMATNLXkK4PC5yNH6uel-4" edge="1">
          <mxGeometry relative="1" as="geometry" />
        </mxCell>
        <mxCell id="XMATNLXkK4PC5yNH6uel-3" value="B0 = B" style="rounded=0;whiteSpace=wrap;html=1;" parent="WIyWlLk6GJQsqaUBKTNV-1" vertex="1">
          <mxGeometry x="300" y="540" width="120" height="20" as="geometry" />
        </mxCell>
        <mxCell id="XMATNLXkK4PC5yNH6uel-4" value="B = bfun(B0,z_soll(m))" style="rounded=0;whiteSpace=wrap;html=1;" parent="WIyWlLk6GJQsqaUBKTNV-1" vertex="1">
          <mxGeometry x="280" y="585" width="160" height="34.5" as="geometry" />
        </mxCell>
        <mxCell id="_sylbeW_0SSfajVgVUL3-4" style="edgeStyle=orthogonalEdgeStyle;rounded=0;orthogonalLoop=1;jettySize=auto;html=1;entryX=0.5;entryY=0;entryDx=0;entryDy=0;" parent="WIyWlLk6GJQsqaUBKTNV-1" source="_sylbeW_0SSfajVgVUL3-36" target="_sylbeW_0SSfajVgVUL3-1" edge="1">
          <mxGeometry relative="1" as="geometry" />
        </mxCell>
        <mxCell id="XMATNLXkK4PC5yNH6uel-2" value="B = 0" style="rounded=0;whiteSpace=wrap;html=1;" parent="WIyWlLk6GJQsqaUBKTNV-1" vertex="1">
          <mxGeometry x="300" y="180" width="120" height="20" as="geometry" />
        </mxCell>
        <mxCell id="XMATNLXkK4PC5yNH6uel-9" value="" style="rounded=0;html=1;jettySize=auto;orthogonalLoop=1;fontSize=11;endArrow=block;endFill=0;endSize=8;strokeWidth=1;shadow=0;labelBackgroundColor=none;edgeStyle=orthogonalEdgeStyle;" parent="WIyWlLk6GJQsqaUBKTNV-1" source="XMATNLXkK4PC5yNH6uel-0" target="XMATNLXkK4PC5yNH6uel-2" edge="1">
          <mxGeometry relative="1" as="geometry">
            <mxPoint x="360" y="220" as="sourcePoint" />
            <mxPoint x="360" y="370" as="targetPoint" />
          </mxGeometry>
        </mxCell>
        <mxCell id="_sylbeW_0SSfajVgVUL3-18" style="edgeStyle=orthogonalEdgeStyle;rounded=0;orthogonalLoop=1;jettySize=auto;html=1;exitX=0;exitY=0.5;exitDx=0;exitDy=0;entryX=0.5;entryY=0;entryDx=0;entryDy=0;" parent="WIyWlLk6GJQsqaUBKTNV-1" source="XMATNLXkK4PC5yNH6uel-22" target="_sylbeW_0SSfajVgVUL3-14" edge="1">
          <mxGeometry relative="1" as="geometry" />
        </mxCell>
        <mxCell id="_sylbeW_0SSfajVgVUL3-19" value="nein" style="edgeLabel;html=1;align=center;verticalAlign=middle;resizable=0;points=[];" parent="_sylbeW_0SSfajVgVUL3-18" vertex="1" connectable="0">
          <mxGeometry x="-0.5317" y="2" relative="1" as="geometry">
            <mxPoint x="4.829999999999999" y="-1.9999999999999998" as="offset" />
          </mxGeometry>
        </mxCell>
        <mxCell id="XMATNLXkK4PC5yNH6uel-22" value="engaged Bed:&lt;br&gt;isreal(B)?&lt;br&gt;pkt in Wkst?" style="rhombus;whiteSpace=wrap;html=1;" parent="WIyWlLk6GJQsqaUBKTNV-1" vertex="1">
          <mxGeometry x="300" y="645" width="120" height="80" as="geometry" />
        </mxCell>
        <mxCell id="XMATNLXkK4PC5yNH6uel-23" style="edgeStyle=orthogonalEdgeStyle;rounded=0;orthogonalLoop=1;jettySize=auto;html=1;entryX=0.5;entryY=0;entryDx=0;entryDy=0;endArrow=blockThin;endFill=0;" parent="WIyWlLk6GJQsqaUBKTNV-1" source="XMATNLXkK4PC5yNH6uel-4" target="XMATNLXkK4PC5yNH6uel-22" edge="1">
          <mxGeometry relative="1" as="geometry">
            <mxPoint x="360" y="729.5" as="sourcePoint" />
            <mxPoint x="360" y="865" as="targetPoint" />
          </mxGeometry>
        </mxCell>
        <mxCell id="XMATNLXkK4PC5yNH6uel-29" style="edgeStyle=orthogonalEdgeStyle;rounded=0;orthogonalLoop=1;jettySize=auto;html=1;exitX=0.5;exitY=0;exitDx=0;exitDy=0;entryX=0.5;entryY=1;entryDx=0;entryDy=0;endArrow=blockThin;endFill=0;" parent="WIyWlLk6GJQsqaUBKTNV-1" source="XMATNLXkK4PC5yNH6uel-24" target="XMATNLXkK4PC5yNH6uel-28" edge="1">
          <mxGeometry relative="1" as="geometry" />
        </mxCell>
        <mxCell id="XMATNLXkK4PC5yNH6uel-24" value="B = B + pi/2" style="rounded=0;whiteSpace=wrap;html=1;" parent="WIyWlLk6GJQsqaUBKTNV-1" vertex="1">
          <mxGeometry x="80" y="455" width="120" height="30" as="geometry" />
        </mxCell>
        <mxCell id="2camejoPiR0EdTEqjuOT-0" style="edgeStyle=orthogonalEdgeStyle;rounded=0;orthogonalLoop=1;jettySize=auto;html=1;exitX=0.5;exitY=0;exitDx=0;exitDy=0;entryX=0.5;entryY=0;entryDx=0;entryDy=0;" edge="1" parent="WIyWlLk6GJQsqaUBKTNV-1" source="XMATNLXkK4PC5yNH6uel-28" target="_sylbeW_0SSfajVgVUL3-31">
          <mxGeometry relative="1" as="geometry" />
        </mxCell>
        <mxCell id="XMATNLXkK4PC5yNH6uel-28" value="zurÃ¼ck zur obersten Ebene&lt;br&gt;m = 0" style="rounded=0;whiteSpace=wrap;html=1;" parent="WIyWlLk6GJQsqaUBKTNV-1" vertex="1">
          <mxGeometry x="70" y="390" width="150" height="30" as="geometry" />
        </mxCell>
        <mxCell id="XMATNLXkK4PC5yNH6uel-37" style="edgeStyle=orthogonalEdgeStyle;rounded=0;orthogonalLoop=1;jettySize=auto;html=1;exitX=0.5;exitY=1;exitDx=0;exitDy=0;entryX=0.5;entryY=0;entryDx=0;entryDy=0;endArrow=blockThin;endFill=0;" parent="WIyWlLk6GJQsqaUBKTNV-1" source="XMATNLXkK4PC5yNH6uel-31" target="XMATNLXkK4PC5yNH6uel-35" edge="1">
          <mxGeometry relative="1" as="geometry" />
        </mxCell>
        <mxCell id="XMATNLXkK4PC5yNH6uel-31" value="Solutionvektor&lt;br&gt;sol(n) = [z_soll(m), B]" style="rounded=0;whiteSpace=wrap;html=1;" parent="WIyWlLk6GJQsqaUBKTNV-1" vertex="1">
          <mxGeometry x="285" y="1020" width="150" height="40" as="geometry" />
        </mxCell>
        <mxCell id="XMATNLXkK4PC5yNH6uel-33" style="edgeStyle=orthogonalEdgeStyle;rounded=0;orthogonalLoop=1;jettySize=auto;html=1;endArrow=blockThin;endFill=0;" parent="WIyWlLk6GJQsqaUBKTNV-1" source="XMATNLXkK4PC5yNH6uel-5" target="XMATNLXkK4PC5yNH6uel-31" edge="1">
          <mxGeometry relative="1" as="geometry">
            <mxPoint x="360" y="925" as="sourcePoint" />
            <mxPoint x="400" y="985" as="targetPoint" />
            <Array as="points" />
          </mxGeometry>
        </mxCell>
        <mxCell id="XMATNLXkK4PC5yNH6uel-41" style="edgeStyle=orthogonalEdgeStyle;rounded=0;orthogonalLoop=1;jettySize=auto;html=1;exitX=0.5;exitY=1;exitDx=0;exitDy=0;entryX=0.5;entryY=0;entryDx=0;entryDy=0;endArrow=blockThin;endFill=0;" parent="WIyWlLk6GJQsqaUBKTNV-1" source="XMATNLXkK4PC5yNH6uel-35" target="XMATNLXkK4PC5yNH6uel-40" edge="1">
          <mxGeometry relative="1" as="geometry">
            <Array as="points">
              <mxPoint x="362.07" y="1175" />
              <mxPoint x="362.07" y="1175" />
            </Array>
          </mxGeometry>
        </mxCell>
        <mxCell id="_sylbeW_0SSfajVgVUL3-27" value="true" style="edgeLabel;html=1;align=center;verticalAlign=middle;resizable=0;points=[];" parent="XMATNLXkK4PC5yNH6uel-41" vertex="1" connectable="0">
          <mxGeometry x="-0.2604" relative="1" as="geometry">
            <mxPoint as="offset" />
          </mxGeometry>
        </mxCell>
        <mxCell id="_sylbeW_0SSfajVgVUL3-25" style="edgeStyle=orthogonalEdgeStyle;rounded=0;orthogonalLoop=1;jettySize=auto;html=1;entryX=0.5;entryY=0;entryDx=0;entryDy=0;labelBackgroundColor=#ffffff;" parent="WIyWlLk6GJQsqaUBKTNV-1" source="XMATNLXkK4PC5yNH6uel-35" target="_sylbeW_0SSfajVgVUL3-1" edge="1">
          <mxGeometry relative="1" as="geometry">
            <Array as="points">
              <mxPoint x="560" y="1105" />
              <mxPoint x="560" y="360" />
              <mxPoint x="360" y="360" />
            </Array>
          </mxGeometry>
        </mxCell>
        <mxCell id="_sylbeW_0SSfajVgVUL3-26" value="false" style="edgeLabel;html=1;align=center;verticalAlign=middle;resizable=0;points=[];" parent="_sylbeW_0SSfajVgVUL3-25" vertex="1" connectable="0">
          <mxGeometry x="-0.9687" y="-1" relative="1" as="geometry">
            <mxPoint as="offset" />
          </mxGeometry>
        </mxCell>
        <mxCell id="XMATNLXkK4PC5yNH6uel-35" value="StopCriterion" style="rhombus;whiteSpace=wrap;html=1;shadow=0;fontFamily=Helvetica;fontSize=12;align=center;strokeWidth=1;spacing=6;spacingTop=-4;" parent="WIyWlLk6GJQsqaUBKTNV-1" vertex="1">
          <mxGeometry x="312.07" y="1080" width="100" height="50" as="geometry" />
        </mxCell>
        <mxCell id="XMATNLXkK4PC5yNH6uel-40" value="Finish" style="rounded=1;whiteSpace=wrap;html=1;" parent="WIyWlLk6GJQsqaUBKTNV-1" vertex="1">
          <mxGeometry x="302.07" y="1170" width="120" height="40" as="geometry" />
        </mxCell>
        <mxCell id="XMATNLXkK4PC5yNH6uel-43" value="ja" style="edgeStyle=orthogonalEdgeStyle;rounded=0;orthogonalLoop=1;jettySize=auto;html=1;entryX=0.5;entryY=0;entryDx=0;entryDy=0;endArrow=blockThin;endFill=0;" parent="WIyWlLk6GJQsqaUBKTNV-1" source="XMATNLXkK4PC5yNH6uel-22" target="_sylbeW_0SSfajVgVUL3-21" edge="1">
          <mxGeometry x="-0.5" relative="1" as="geometry">
            <mxPoint x="360" y="775" as="sourcePoint" />
            <mxPoint x="360" y="810" as="targetPoint" />
            <mxPoint as="offset" />
          </mxGeometry>
        </mxCell>
        <mxCell id="_sylbeW_0SSfajVgVUL3-1" value="absoluter ZÃ¤hler&lt;br&gt;n = n +1" style="rounded=0;whiteSpace=wrap;html=1;" parent="WIyWlLk6GJQsqaUBKTNV-1" vertex="1">
          <mxGeometry x="300" y="370" width="120" height="40" as="geometry" />
        </mxCell>
        <mxCell id="_sylbeW_0SSfajVgVUL3-3" value="false" style="edgeStyle=orthogonalEdgeStyle;rounded=0;html=1;jettySize=auto;orthogonalLoop=1;fontSize=11;endArrow=block;endFill=0;endSize=8;strokeWidth=1;shadow=0;labelBackgroundColor=#ffffff;entryX=1;entryY=0.5;entryDx=0;entryDy=0;exitX=1;exitY=0.5;exitDx=0;exitDy=0;" parent="WIyWlLk6GJQsqaUBKTNV-1" source="WIyWlLk6GJQsqaUBKTNV-10" target="_sylbeW_0SSfajVgVUL3-6" edge="1">
          <mxGeometry x="-0.9245" relative="1" as="geometry">
            <mxPoint as="offset" />
            <mxPoint x="360" y="420" as="targetPoint" />
            <Array as="points">
              <mxPoint x="510" y="880" />
              <mxPoint x="510" y="470" />
            </Array>
            <mxPoint x="420" y="840" as="sourcePoint" />
          </mxGeometry>
        </mxCell>
        <mxCell id="_sylbeW_0SSfajVgVUL3-9" style="edgeStyle=orthogonalEdgeStyle;rounded=0;orthogonalLoop=1;jettySize=auto;html=1;exitX=0;exitY=0.5;exitDx=0;exitDy=0;" parent="WIyWlLk6GJQsqaUBKTNV-1" source="_sylbeW_0SSfajVgVUL3-6" target="XMATNLXkK4PC5yNH6uel-24" edge="1">
          <mxGeometry relative="1" as="geometry" />
        </mxCell>
        <mxCell id="_sylbeW_0SSfajVgVUL3-10" value="false" style="edgeLabel;html=1;align=center;verticalAlign=middle;resizable=0;points=[];" parent="_sylbeW_0SSfajVgVUL3-9" vertex="1" connectable="0">
          <mxGeometry x="-0.6017" relative="1" as="geometry">
            <mxPoint as="offset" />
          </mxGeometry>
        </mxCell>
        <mxCell id="_sylbeW_0SSfajVgVUL3-6" value="while engaged" style="rhombus;whiteSpace=wrap;html=1;" parent="WIyWlLk6GJQsqaUBKTNV-1" vertex="1">
          <mxGeometry x="310" y="440" width="100" height="60" as="geometry" />
        </mxCell>
        <mxCell id="_sylbeW_0SSfajVgVUL3-7" value="" style="rounded=0;html=1;jettySize=auto;orthogonalLoop=1;fontSize=11;endArrow=block;endFill=0;endSize=8;strokeWidth=1;shadow=0;labelBackgroundColor=none;edgeStyle=orthogonalEdgeStyle;entryX=0.5;entryY=0;entryDx=0;entryDy=0;" parent="WIyWlLk6GJQsqaUBKTNV-1" source="_sylbeW_0SSfajVgVUL3-1" target="_sylbeW_0SSfajVgVUL3-6" edge="1">
          <mxGeometry relative="1" as="geometry">
            <mxPoint x="360" y="600" as="targetPoint" />
            <mxPoint x="360" y="410" as="sourcePoint" />
          </mxGeometry>
        </mxCell>
        <mxCell id="_sylbeW_0SSfajVgVUL3-30" style="edgeStyle=orthogonalEdgeStyle;rounded=0;orthogonalLoop=1;jettySize=auto;html=1;exitX=0.5;exitY=1;exitDx=0;exitDy=0;entryX=0.5;entryY=0;entryDx=0;entryDy=0;labelBackgroundColor=#ffffff;" parent="WIyWlLk6GJQsqaUBKTNV-1" source="_sylbeW_0SSfajVgVUL3-14" target="_sylbeW_0SSfajVgVUL3-21" edge="1">
          <mxGeometry relative="1" as="geometry" />
        </mxCell>
        <mxCell id="_sylbeW_0SSfajVgVUL3-14" value="engaged = false" style="rounded=0;whiteSpace=wrap;html=1;" parent="WIyWlLk6GJQsqaUBKTNV-1" vertex="1">
          <mxGeometry x="160" y="710" width="120" height="30" as="geometry" />
        </mxCell>
        <mxCell id="_sylbeW_0SSfajVgVUL3-22" style="edgeStyle=orthogonalEdgeStyle;rounded=0;orthogonalLoop=1;jettySize=auto;html=1;entryX=0.5;entryY=0;entryDx=0;entryDy=0;labelBackgroundColor=#ffffff;" parent="WIyWlLk6GJQsqaUBKTNV-1" source="_sylbeW_0SSfajVgVUL3-21" target="WIyWlLk6GJQsqaUBKTNV-10" edge="1">
          <mxGeometry relative="1" as="geometry" />
        </mxCell>
        <mxCell id="_sylbeW_0SSfajVgVUL3-21" value="div = B- B0" style="rounded=0;whiteSpace=wrap;html=1;" parent="WIyWlLk6GJQsqaUBKTNV-1" vertex="1">
          <mxGeometry x="300" y="790" width="120" height="30" as="geometry" />
        </mxCell>
        <mxCell id="XMATNLXkK4PC5yNH6uel-5" value="ZÃ¤hler diskrete Ebenen&lt;br&gt;m = m+1" style="rounded=0;whiteSpace=wrap;html=1;" parent="WIyWlLk6GJQsqaUBKTNV-1" vertex="1">
          <mxGeometry x="280" y="950" width="160" height="40" as="geometry" />
        </mxCell>
        <mxCell id="_sylbeW_0SSfajVgVUL3-24" style="edgeStyle=orthogonalEdgeStyle;rounded=0;orthogonalLoop=1;jettySize=auto;html=1;endArrow=blockThin;endFill=0;" parent="WIyWlLk6GJQsqaUBKTNV-1" source="WIyWlLk6GJQsqaUBKTNV-10" target="XMATNLXkK4PC5yNH6uel-5" edge="1">
          <mxGeometry relative="1" as="geometry">
            <mxPoint x="360" y="975" as="sourcePoint" />
            <mxPoint x="360" y="1130" as="targetPoint" />
            <Array as="points" />
          </mxGeometry>
        </mxCell>
        <mxCell id="2camejoPiR0EdTEqjuOT-1" value="true" style="edgeLabel;html=1;align=center;verticalAlign=middle;resizable=0;points=[];" vertex="1" connectable="0" parent="_sylbeW_0SSfajVgVUL3-24">
          <mxGeometry x="-0.7721" y="-1" relative="1" as="geometry">
            <mxPoint x="1" y="4.42" as="offset" />
          </mxGeometry>
        </mxCell>
        <mxCell id="_sylbeW_0SSfajVgVUL3-34" style="edgeStyle=orthogonalEdgeStyle;rounded=0;orthogonalLoop=1;jettySize=auto;html=1;exitX=1;exitY=0.5;exitDx=0;exitDy=0;entryX=0.5;entryY=1;entryDx=0;entryDy=0;labelBackgroundColor=#ffffff;" parent="WIyWlLk6GJQsqaUBKTNV-1" source="_sylbeW_0SSfajVgVUL3-31" target="_sylbeW_0SSfajVgVUL3-33" edge="1">
          <mxGeometry relative="1" as="geometry">
            <Array as="points">
              <mxPoint x="495" y="260" />
            </Array>
          </mxGeometry>
        </mxCell>
        <mxCell id="_sylbeW_0SSfajVgVUL3-38" value="false" style="edgeLabel;html=1;align=center;verticalAlign=middle;resizable=0;points=[];" parent="_sylbeW_0SSfajVgVUL3-34" vertex="1" connectable="0">
          <mxGeometry x="-0.6241" y="1" relative="1" as="geometry">
            <mxPoint x="4.67" y="0.99" as="offset" />
          </mxGeometry>
        </mxCell>
        <mxCell id="_sylbeW_0SSfajVgVUL3-31" value="engaged?&lt;br&gt;(Pkt in Volumen)" style="rhombus;whiteSpace=wrap;html=1;" parent="WIyWlLk6GJQsqaUBKTNV-1" vertex="1">
          <mxGeometry x="302.5" y="230" width="115" height="59.94" as="geometry" />
        </mxCell>
        <mxCell id="_sylbeW_0SSfajVgVUL3-32" style="edgeStyle=orthogonalEdgeStyle;rounded=0;orthogonalLoop=1;jettySize=auto;html=1;entryX=0.5;entryY=0;entryDx=0;entryDy=0;" parent="WIyWlLk6GJQsqaUBKTNV-1" source="XMATNLXkK4PC5yNH6uel-2" target="_sylbeW_0SSfajVgVUL3-31" edge="1">
          <mxGeometry relative="1" as="geometry">
            <mxPoint x="360" y="210" as="sourcePoint" />
            <mxPoint x="360" y="370" as="targetPoint" />
          </mxGeometry>
        </mxCell>
        <mxCell id="_sylbeW_0SSfajVgVUL3-35" style="edgeStyle=orthogonalEdgeStyle;rounded=0;orthogonalLoop=1;jettySize=auto;html=1;exitX=0.5;exitY=0;exitDx=0;exitDy=0;entryX=0.5;entryY=0;entryDx=0;entryDy=0;labelBackgroundColor=#ffffff;" parent="WIyWlLk6GJQsqaUBKTNV-1" source="_sylbeW_0SSfajVgVUL3-33" target="_sylbeW_0SSfajVgVUL3-31" edge="1">
          <mxGeometry relative="1" as="geometry">
            <Array as="points">
              <mxPoint x="495" y="210" />
              <mxPoint x="360" y="210" />
            </Array>
          </mxGeometry>
        </mxCell>
        <mxCell id="_sylbeW_0SSfajVgVUL3-33" value="B = B + dB" style="rounded=0;whiteSpace=wrap;html=1;" parent="WIyWlLk6GJQsqaUBKTNV-1" vertex="1">
          <mxGeometry x="460" y="219.97" width="70" height="20" as="geometry" />
        </mxCell>
        <mxCell id="_sylbeW_0SSfajVgVUL3-36" value="engaged = true" style="rounded=0;whiteSpace=wrap;html=1;" parent="WIyWlLk6GJQsqaUBKTNV-1" vertex="1">
          <mxGeometry x="300" y="330" width="120" height="19.97" as="geometry" />
        </mxCell>
        <mxCell id="_sylbeW_0SSfajVgVUL3-37" style="edgeStyle=orthogonalEdgeStyle;rounded=0;orthogonalLoop=1;jettySize=auto;html=1;entryX=0.5;entryY=0;entryDx=0;entryDy=0;" parent="WIyWlLk6GJQsqaUBKTNV-1" source="_sylbeW_0SSfajVgVUL3-31" target="_sylbeW_0SSfajVgVUL3-36" edge="1">
          <mxGeometry relative="1" as="geometry">
            <mxPoint x="360" y="279.97" as="sourcePoint" />
            <mxPoint x="360" y="370" as="targetPoint" />
          </mxGeometry>
        </mxCell>
        <mxCell id="_sylbeW_0SSfajVgVUL3-39" value="true" style="edgeLabel;html=1;align=center;verticalAlign=middle;resizable=0;points=[];" parent="_sylbeW_0SSfajVgVUL3-37" vertex="1" connectable="0">
          <mxGeometry x="0.1005" y="1" relative="1" as="geometry">
            <mxPoint as="offset" />
          </mxGeometry>
        </mxCell>
      </root>
    </mxGraphModel>
  </diagram>
</mxfile>
